<svg width="428" height="117" viewBox="0 0 428 117" fill="none" xmlns="http://www.w3.org/2000/svg">
<path d="M369.5 75.52V0H373.34V75.52H369.5ZM384.86 75.52V0H396.38V75.52H384.86ZM400.22 75.52V0H404.06V75.52H400.22ZM407.9 75.52V0H419.42V75.52H407.9ZM423.26 75.52V0H427.1V75.52H423.26Z" fill="white"/>
<path d="M308 75.52V0H319.52V75.52H308ZM323.36 75.52V0H334.88V75.52H323.36ZM338.72 75.52V0H342.56V75.52H338.72ZM354.08 75.52V0H357.92V75.52H354.08ZM361.76 75.52V0H365.6V75.52H361.76Z" fill="white"/>
<path d="M246.5 75.52V0H250.34V75.52H246.5ZM254.18 75.52V0H265.7V75.52H254.18ZM269.54 75.52V0H273.38V75.52H269.54ZM284.9 75.52V0H296.42V75.52H284.9ZM300.26 75.52V0H304.1V75.52H300.26Z" fill="white"/>
<path d="M185 75.52V0H188.84V75.52H185ZM192.68 75.52V0H196.52V75.52H192.68ZM200.36 75.52V0H211.88V75.52H200.36ZM215.72 75.52V0H227.24V75.52H215.72ZM238.76 75.52V0H242.6V75.52H238.76Z" fill="white"/>
<path d="M123.5 75.52V0H135.02V75.52H123.5ZM138.86 75.52V0H142.7V75.52H138.86ZM146.54 75.52V0H150.38V75.52H146.54ZM161.9 75.52V0H165.74V75.52H161.9ZM169.58 75.52V0H181.1V75.52H169.58Z" fill="white"/>
<path d="M62 75.52V0H65.84V75.52H62ZM69.68 75.52V0H73.52V75.52H69.68ZM77.36 75.52V0H88.88V75.52H77.36ZM92.72 75.52V0H104.24V75.52H92.72ZM115.76 75.52V0H119.6V75.52H115.76Z" fill="white"/>
<path d="M0.5 75.52V0H4.34V75.52H0.5ZM8.17999 75.52V0H19.7V75.52H8.17999ZM23.54 75.52V0H27.38V75.52H23.54ZM31.22 75.52V0H42.74V75.52H31.22ZM54.26 75.52V0H58.1V75.52H54.26Z" fill="white"/>
<path d="M363.748 115.2C365.455 116.309 367.417 116.864 369.636 116.864C371.513 116.864 373.135 116.437 374.5 115.584C375.78 114.816 376.932 113.621 377.956 112L375.524 110.336C374.841 111.445 373.945 112.341 372.836 113.024C371.812 113.621 370.703 113.92 369.508 113.92C367.972 113.92 366.564 113.408 365.284 112.384C364.089 111.36 363.108 109.909 362.34 108.032C361.657 106.069 361.316 103.893 361.316 101.504C361.316 97.5788 361.999 94.5494 363.364 92.4161C364.815 90.1974 366.82 89.0881 369.38 89.0881C370.319 89.0881 371.215 89.3014 372.068 89.7281C372.921 90.1548 373.689 90.8374 374.372 91.7761C374.799 92.3734 375.012 92.8428 375.012 93.1841V93.5681L375.14 93.8241L375.524 93.6961L378.34 92.2881C377.572 90.4961 376.42 89.0881 374.884 88.0641C373.348 87.0401 371.513 86.5281 369.38 86.5281C367.417 86.5281 365.583 86.9974 363.876 87.9361C362.169 88.9601 360.761 90.5814 359.652 92.8001C358.543 95.1041 357.988 98.0481 357.988 101.632C357.988 105.045 358.5 107.904 359.524 110.208C360.548 112.427 361.956 114.091 363.748 115.2Z" fill="white"/>
<path d="M304.296 113.536H298.408V116.352H313.768V113.536H307.624V89.4721H313.512V86.6561H298.792V89.4721H304.296V113.536Z" fill="white"/>
<path d="M234.604 89.6001H242.924V116.352H246.38V89.6001H255.084V86.6561H234.604V89.6001Z" fill="white"/>
<path d="M111.604 89.6001H119.924V116.352H123.38V89.6001H132.084V86.6561H111.604V89.6001Z" fill="white"/>
<path d="M51 113.024C53.3893 115.584 56.504 116.864 60.344 116.864C62.4773 116.864 64.312 116.437 65.848 115.584C67.2987 114.731 68.408 113.664 69.176 112.384C69.8587 111.104 70.2 109.739 70.2 108.288C70.2 106.411 69.688 104.832 68.664 103.552C67.5547 102.357 65.592 101.163 62.776 99.9681C60.728 99.2001 59.192 98.4748 58.168 97.7921C57.144 97.1948 56.4187 96.5548 55.992 95.8721C55.6507 95.1894 55.48 94.3788 55.48 93.4401C55.48 92.2454 55.9493 91.2214 56.888 90.3681C57.7413 89.5148 58.936 89.0881 60.472 89.0881C61.6667 89.0881 62.6907 89.2161 63.544 89.4721C64.4827 89.8134 65.2933 90.3254 65.976 91.0081C66.232 91.1788 66.4027 91.3921 66.488 91.6481C66.6587 91.8188 66.744 92.0321 66.744 92.2881C66.8293 92.4588 66.872 92.5868 66.872 92.6721L67.128 92.9281L69.304 89.9841C68.1947 88.8748 66.9573 87.9788 65.592 87.2961C64.1413 86.6134 62.6053 86.2721 60.984 86.2721C58.2533 86.2721 56.0773 86.9548 54.456 88.3201C52.8347 89.6854 52.024 91.4774 52.024 93.6961C52.024 95.4881 52.6213 97.1094 53.816 98.5601C55.096 100.011 57.1867 101.291 60.088 102.4C62.0507 103.253 63.5013 103.979 64.44 104.576C65.3787 105.173 66.0187 105.771 66.36 106.368C66.7867 107.051 67 107.861 67 108.8C67 110.165 66.4027 111.36 65.208 112.384C64.0133 113.323 62.5627 113.792 60.856 113.792C58.2107 113.792 55.992 113.024 54.2 111.488C53.944 111.317 53.7733 111.147 53.688 110.976C53.5173 110.72 53.432 110.507 53.432 110.336C53.3467 110.08 53.304 109.909 53.304 109.824L52.92 109.696L52.792 110.08L51 113.024Z" fill="white"/>
<path fill-rule="evenodd" clip-rule="evenodd" d="M188.208 107.648H178.608L175.664 116.352H172.336L183.216 86.144H183.6L194.608 116.352H191.152L188.208 107.648ZM187.312 105.088L183.472 93.8241L179.504 105.088H187.312Z" fill="white"/>
</svg>
