<svg width="428" height="118" viewBox="0 0 428 118" fill="none" xmlns="http://www.w3.org/2000/svg">
<path d="M369.5 76V0.47998H373.34V76H369.5ZM384.86 76V0.47998H396.38V76H384.86ZM400.22 76V0.47998H404.06V76H400.22ZM407.9 76V0.47998H419.42V76H407.9ZM423.26 76V0.47998H427.1V76H423.26Z" fill="black"/>
<path d="M308 76V0.47998H319.52V76H308ZM323.36 76V0.47998H334.88V76H323.36ZM338.72 76V0.47998H342.56V76H338.72ZM354.08 76V0.47998H357.92V76H354.08ZM361.76 76V0.47998H365.6V76H361.76Z" fill="black"/>
<path d="M246.5 76V0.47998H250.34V76H246.5ZM254.18 76V0.47998H265.7V76H254.18ZM269.54 76V0.47998H273.38V76H269.54ZM284.9 76V0.47998H296.42V76H284.9ZM300.26 76V0.47998H304.1V76H300.26Z" fill="black"/>
<path d="M185 76V0.47998H188.84V76H185ZM192.68 76V0.47998H196.52V76H192.68ZM200.36 76V0.47998H211.88V76H200.36ZM215.72 76V0.47998H227.24V76H215.72ZM238.76 76V0.47998H242.6V76H238.76Z" fill="black"/>
<path d="M123.5 76V0.47998H135.02V76H123.5ZM138.86 76V0.47998H142.7V76H138.86ZM146.54 76V0.47998H150.38V76H146.54ZM161.9 76V0.47998H165.74V76H161.9ZM169.58 76V0.47998H181.1V76H169.58Z" fill="black"/>
<path d="M62 76V0.47998H65.84V76H62ZM69.68 76V0.47998H73.52V76H69.68ZM77.36 76V0.47998H88.88V76H77.36ZM92.72 76V0.47998H104.24V76H92.72ZM115.76 76V0.47998H119.6V76H115.76Z" fill="black"/>
<path d="M0.5 76V0.47998H4.34V76H0.5ZM8.17999 76V0.47998H19.7V76H8.17999ZM23.54 76V0.47998H27.38V76H23.54ZM31.22 76V0.47998H42.74V76H31.22ZM54.26 76V0.47998H58.1V76H54.26Z" fill="black"/>
<path d="M363.748 115.68C365.455 116.789 367.417 117.344 369.636 117.344C371.513 117.344 373.135 116.917 374.5 116.064C375.78 115.296 376.932 114.101 377.956 112.48L375.524 110.816C374.841 111.925 373.945 112.821 372.836 113.504C371.812 114.101 370.703 114.4 369.508 114.4C367.972 114.4 366.564 113.888 365.284 112.864C364.089 111.84 363.108 110.389 362.34 108.512C361.657 106.549 361.316 104.373 361.316 101.984C361.316 98.0587 361.999 95.0294 363.364 92.8961C364.815 90.6774 366.82 89.5681 369.38 89.5681C370.319 89.5681 371.215 89.7814 372.068 90.2081C372.921 90.6347 373.689 91.3174 374.372 92.2561C374.799 92.8534 375.012 93.3227 375.012 93.6641V94.0481L375.14 94.3041L375.524 94.1761L378.34 92.7681C377.572 90.9761 376.42 89.5681 374.884 88.5441C373.348 87.5201 371.513 87.0081 369.38 87.0081C367.417 87.0081 365.583 87.4774 363.876 88.4161C362.169 89.4401 360.761 91.0614 359.652 93.2801C358.543 95.5841 357.988 98.5281 357.988 102.112C357.988 105.525 358.5 108.384 359.524 110.688C360.548 112.907 361.956 114.571 363.748 115.68Z" fill="black"/>
<path d="M304.296 114.016H298.408V116.832H313.768V114.016H307.624V89.9521H313.512V87.1361H298.792V89.9521H304.296V114.016Z" fill="black"/>
<path d="M234.604 90.0801H242.924V116.832H246.38V90.0801H255.084V87.1361H234.604V90.0801Z" fill="black"/>
<path d="M111.604 90.0801H119.924V116.832H123.38V90.0801H132.084V87.1361H111.604V90.0801Z" fill="black"/>
<path d="M51 113.504C53.3893 116.064 56.504 117.344 60.344 117.344C62.4773 117.344 64.312 116.917 65.848 116.064C67.2987 115.211 68.408 114.144 69.176 112.864C69.8587 111.584 70.2 110.219 70.2 108.768C70.2 106.891 69.688 105.312 68.664 104.032C67.5547 102.837 65.592 101.643 62.776 100.448C60.728 99.6801 59.192 98.9547 58.168 98.2721C57.144 97.6747 56.4187 97.0347 55.992 96.3521C55.6507 95.6694 55.48 94.8587 55.48 93.9201C55.48 92.7254 55.9493 91.7014 56.888 90.8481C57.7413 89.9947 58.936 89.5681 60.472 89.5681C61.6667 89.5681 62.6907 89.6961 63.544 89.9521C64.4827 90.2934 65.2933 90.8054 65.976 91.4881C66.232 91.6587 66.4027 91.8721 66.488 92.1281C66.6587 92.2987 66.744 92.5121 66.744 92.7681C66.8293 92.9387 66.872 93.0667 66.872 93.1521L67.128 93.4081L69.304 90.4641C68.1947 89.3547 66.9573 88.4587 65.592 87.7761C64.1413 87.0934 62.6053 86.7521 60.984 86.7521C58.2533 86.7521 56.0773 87.4347 54.456 88.8001C52.8347 90.1654 52.024 91.9574 52.024 94.1761C52.024 95.9681 52.6213 97.5894 53.816 99.0401C55.096 100.491 57.1867 101.771 60.088 102.88C62.0507 103.733 63.5013 104.459 64.44 105.056C65.3787 105.653 66.0187 106.251 66.36 106.848C66.7867 107.531 67 108.341 67 109.28C67 110.645 66.4027 111.84 65.208 112.864C64.0133 113.803 62.5627 114.272 60.856 114.272C58.2107 114.272 55.992 113.504 54.2 111.968C53.944 111.797 53.7733 111.627 53.688 111.456C53.5173 111.2 53.432 110.987 53.432 110.816C53.3467 110.56 53.304 110.389 53.304 110.304L52.92 110.176L52.792 110.56L51 113.504Z" fill="black"/>
<path fill-rule="evenodd" clip-rule="evenodd" d="M188.208 108.128H178.608L175.664 116.832H172.336L183.216 86.624H183.6L194.608 116.832H191.152L188.208 108.128ZM187.312 105.568L183.472 94.3041L179.504 105.568H187.312Z" fill="black"/>
</svg>
